<?xml version="1.0" standalone="no"?>
<!DOCTYPE svg PUBLIC "-//W3C//DTD SVG 20010904//EN"
 "http://www.w3.org/TR/2001/REC-SVG-20010904/DTD/svg10.dtd">
<svg version="1.0" xmlns="http://www.w3.org/2000/svg"
 width="500.000000pt" height="500.000000pt" viewBox="0 0 500.000000 500.000000"
 preserveAspectRatio="xMidYMid meet">
<metadata>
Created by potrace 1.14, written by Peter Selinger 2001-2017
</metadata>
<g transform="translate(0.000000,500.000000) scale(0.100000,-0.100000)"
fill="#000000" stroke="none">
<path d="M0 2500 l0 -2500 1100 0 c605 0 1100 2 1100 5 0 2 -9 28 -21 57 -51
127 -215 628 -280 851 -89 307 -129 509 -129 653 0 105 13 154 41 154 22 0 22
3 10 225 -7 136 -9 143 -48 230 -23 50 -58 140 -78 201 -33 101 -40 112 -72
129 -48 26 -87 80 -123 169 -40 100 -53 174 -47 268 5 79 32 138 62 138 22 0
74 -49 94 -89 l19 -36 7 100 c24 351 152 577 359 633 38 11 40 10 93 -38 202
-185 540 -295 802 -261 47 6 122 22 166 36 102 33 132 28 180 -27 54 -64 84
-189 85 -360 0 -73 12 -108 24 -71 7 23 44 64 76 86 55 38 85 14 100 -80 26
-159 -65 -412 -165 -460 -29 -14 -45 -34 -50 -63 -10 -55 -119 -316 -162 -390
-26 -42 -28 -54 -31 -188 -4 -137 -3 -144 16 -149 32 -8 47 -59 46 -158 -1
-204 -86 -543 -279 -1120 -105 -316 -133 -390 -140 -383 -5 5 -12 43 -85 466
-38 225 -40 246 -28 284 13 37 19 43 53 50 21 5 62 15 91 24 l54 15 -20 37
c-32 59 -98 161 -114 178 -9 8 -20 13 -25 10 -5 -3 -11 0 -14 8 -9 23 -139 39
-262 33 -116 -6 -155 -13 -155 -29 0 -5 -20 -37 -44 -71 -52 -75 -118 -188
-113 -194 2 -2 44 -9 92 -15 86 -12 88 -12 112 -52 l25 -39 -11 -146 c-7 -80
-16 -180 -21 -221 -6 -41 -14 -129 -20 -195 -5 -66 -13 -139 -16 -162 l-6 -43
1376 0 1376 0 0 2500 0 2500 -2500 0 -2500 0 0 -2500z"/>
</g>
</svg>
